<mxfile modified="2021-08-12T06:42:36.907Z" host="app.diagrams.net" agent="5.0 (Windows NT 10.0; Win64; x64) AppleWebKit/537.36 (KHTML, like Gecko) Chrome/92.0.4515.131 Safari/537.36" etag="llnzorMx_X5a7l-SFLjv" version="14.9.6" type="github">
  <diagram id="l8hXMBHkgcEJcSW0mbfh" name="Page-1">
    <mxGraphModel dx="1673" dy="1714" grid="1" gridSize="10" guides="1" tooltips="1" connect="1" arrows="1" fold="1" page="1" pageScale="1" pageWidth="1169" pageHeight="827" background="none" math="0" shadow="0">
      <root>
        <mxCell id="0" />
        <mxCell id="1" parent="0" />
        <mxCell id="rpo0AfvMABLuY5pFm6gE-92" value="" style="group" vertex="1" connectable="0" parent="1">
          <mxGeometry x="130" y="-260" width="1960" height="880" as="geometry" />
        </mxCell>
        <mxCell id="rpo0AfvMABLuY5pFm6gE-89" value="RDS" style="rounded=0;whiteSpace=wrap;html=1;fontFamily=Helvetica;fillColor=none;align=left;verticalAlign=top;horizontal=1;" vertex="1" parent="rpo0AfvMABLuY5pFm6gE-92">
          <mxGeometry x="1381.208053691275" width="565.6375838926175" height="228.14814814814815" as="geometry" />
        </mxCell>
        <mxCell id="rpo0AfvMABLuY5pFm6gE-58" value="ECS demo" style="points=[[0,0],[0.25,0],[0.5,0],[0.75,0],[1,0],[1,0.25],[1,0.5],[1,0.75],[1,1],[0.75,1],[0.5,1],[0.25,1],[0,1],[0,0.75],[0,0.5],[0,0.25]];outlineConnect=0;gradientColor=none;html=1;whiteSpace=wrap;fontSize=12;fontStyle=0;shape=mxgraph.aws4.group;grIcon=mxgraph.aws4.group_elastic_beanstalk;strokeColor=#D86613;fillColor=none;verticalAlign=top;align=left;spacingLeft=30;fontColor=#D86613;dashed=0;" vertex="1" parent="rpo0AfvMABLuY5pFm6gE-92">
          <mxGeometry x="1381.208053691275" y="306.37037037037044" width="578.7919463087248" height="573.6296296296297" as="geometry" />
        </mxCell>
        <mxCell id="rpo0AfvMABLuY5pFm6gE-9" value="ECS common" style="points=[[0,0],[0.25,0],[0.5,0],[0.75,0],[1,0],[1,0.25],[1,0.5],[1,0.75],[1,1],[0.75,1],[0.5,1],[0.25,1],[0,1],[0,0.75],[0,0.5],[0,0.25]];outlineConnect=0;gradientColor=none;html=1;whiteSpace=wrap;fontSize=12;fontStyle=0;shape=mxgraph.aws4.group;grIcon=mxgraph.aws4.group_elastic_beanstalk;strokeColor=#D86613;fillColor=none;verticalAlign=top;align=left;spacingLeft=30;fontColor=#D86613;dashed=0;" vertex="1" parent="rpo0AfvMABLuY5pFm6gE-92">
          <mxGeometry x="605.1006711409395" y="306.37037037037044" width="578.7919463087248" height="573.6296296296297" as="geometry" />
        </mxCell>
        <mxCell id="rpo0AfvMABLuY5pFm6gE-2" value="VPC NAT" style="outlineConnect=0;dashed=0;verticalLabelPosition=bottom;verticalAlign=top;align=center;html=1;shape=mxgraph.aws3.vpc_nat_gateway;fillColor=#F58534;gradientColor=none;" vertex="1" parent="rpo0AfvMABLuY5pFm6gE-92">
          <mxGeometry x="328.8590604026845" y="517.8962962962963" width="90.76510067114093" height="93.86666666666667" as="geometry" />
        </mxCell>
        <mxCell id="rpo0AfvMABLuY5pFm6gE-16" value="www-demo.vanmirror.com" style="edgeStyle=orthogonalEdgeStyle;rounded=0;orthogonalLoop=1;jettySize=auto;html=1;verticalAlign=bottom;" edge="1" parent="rpo0AfvMABLuY5pFm6gE-92" source="rpo0AfvMABLuY5pFm6gE-15" target="rpo0AfvMABLuY5pFm6gE-2">
          <mxGeometry relative="1" as="geometry" />
        </mxCell>
        <mxCell id="rpo0AfvMABLuY5pFm6gE-15" value="client" style="outlineConnect=0;dashed=0;verticalLabelPosition=bottom;verticalAlign=top;align=center;html=1;shape=mxgraph.aws3.management_console;fillColor=#D2D3D3;gradientColor=none;" vertex="1" parent="rpo0AfvMABLuY5pFm6gE-92">
          <mxGeometry y="523.762962962963" width="82.8724832214765" height="82.13333333333334" as="geometry" />
        </mxCell>
        <mxCell id="rpo0AfvMABLuY5pFm6gE-10" value="RabbitMQ" style="points=[[0,0,0],[0.25,0,0],[0.5,0,0],[0.75,0,0],[1,0,0],[0,1,0],[0.25,1,0],[0.5,1,0],[0.75,1,0],[1,1,0],[0,0.25,0],[0,0.5,0],[0,0.75,0],[1,0.25,0],[1,0.5,0],[1,0.75,0]];outlineConnect=0;fontColor=#232F3E;gradientColor=#F34482;gradientDirection=north;fillColor=#BC1356;strokeColor=#ffffff;dashed=0;verticalLabelPosition=bottom;verticalAlign=top;align=center;html=1;fontSize=12;fontStyle=0;aspect=fixed;shape=mxgraph.aws4.resourceIcon;resIcon=mxgraph.aws4.mq;" vertex="1" parent="rpo0AfvMABLuY5pFm6gE-92">
          <mxGeometry x="874.4362416107382" y="731.3777777777779" width="81.75058529733104" height="81.75058529733104" as="geometry" />
        </mxCell>
        <mxCell id="rpo0AfvMABLuY5pFm6gE-71" style="edgeStyle=orthogonalEdgeStyle;rounded=0;orthogonalLoop=1;jettySize=auto;html=1;entryX=0.5;entryY=0;entryDx=0;entryDy=0;entryPerimeter=0;fontFamily=Helvetica;verticalAlign=bottom;" edge="1" parent="rpo0AfvMABLuY5pFm6gE-92" source="rpo0AfvMABLuY5pFm6gE-1" target="rpo0AfvMABLuY5pFm6gE-10">
          <mxGeometry relative="1" as="geometry" />
        </mxCell>
        <mxCell id="rpo0AfvMABLuY5pFm6gE-1" value="nginx" style="shape=image;html=1;verticalAlign=top;verticalLabelPosition=bottom;labelBackgroundColor=#ffffff;imageAspect=0;aspect=fixed;image=https://cdn4.iconfinder.com/data/icons/logos-brands-5/24/nginx-128.png" vertex="1" parent="rpo0AfvMABLuY5pFm6gE-92">
          <mxGeometry x="841.8791946308725" y="490.8444444444445" width="144.97955361323554" height="144.97955361323554" as="geometry" />
        </mxCell>
        <mxCell id="rpo0AfvMABLuY5pFm6gE-45" style="edgeStyle=orthogonalEdgeStyle;rounded=0;orthogonalLoop=1;jettySize=auto;html=1;fontFamily=Helvetica;" edge="1" parent="rpo0AfvMABLuY5pFm6gE-92" source="rpo0AfvMABLuY5pFm6gE-2" target="rpo0AfvMABLuY5pFm6gE-1">
          <mxGeometry relative="1" as="geometry" />
        </mxCell>
        <mxCell id="rpo0AfvMABLuY5pFm6gE-48" value="port:22" style="edgeLabel;html=1;align=center;verticalAlign=bottom;resizable=0;points=[];fontFamily=Helvetica;" vertex="1" connectable="0" parent="rpo0AfvMABLuY5pFm6gE-45">
          <mxGeometry x="-0.2236" relative="1" as="geometry">
            <mxPoint as="offset" />
          </mxGeometry>
        </mxCell>
        <mxCell id="rpo0AfvMABLuY5pFm6gE-84" value="port: 5672" style="edgeStyle=orthogonalEdgeStyle;rounded=0;orthogonalLoop=1;jettySize=auto;html=1;entryX=1;entryY=0.5;entryDx=0;entryDy=0;entryPerimeter=0;fontFamily=Helvetica;verticalAlign=bottom;exitX=1;exitY=0.5;exitDx=0;exitDy=0;exitPerimeter=0;labelPosition=left;verticalLabelPosition=top;align=right;" edge="1" parent="rpo0AfvMABLuY5pFm6gE-92" source="rpo0AfvMABLuY5pFm6gE-65" target="rpo0AfvMABLuY5pFm6gE-10">
          <mxGeometry relative="1" as="geometry">
            <Array as="points">
              <mxPoint x="1749.5302013422818" y="564.5037037037038" />
              <mxPoint x="1749.5302013422818" y="853.925925925926" />
              <mxPoint x="986.5771812080536" y="853.925925925926" />
              <mxPoint x="986.5771812080536" y="773.0962962962964" />
            </Array>
          </mxGeometry>
        </mxCell>
        <mxCell id="rpo0AfvMABLuY5pFm6gE-65" value="nodeAPI" style="outlineConnect=0;dashed=0;verticalLabelPosition=bottom;verticalAlign=top;align=center;html=1;shape=mxgraph.aws3.android;fillColor=#8CC64F;gradientColor=none;" vertex="1" parent="rpo0AfvMABLuY5pFm6gE-92">
          <mxGeometry x="1624.5637583892615" y="515.9407407407408" width="92.08053691275167" height="97.77777777777779" as="geometry" />
        </mxCell>
        <mxCell id="rpo0AfvMABLuY5pFm6gE-82" value="/nodeapi/" style="edgeStyle=orthogonalEdgeStyle;rounded=0;orthogonalLoop=1;jettySize=auto;html=1;fontFamily=Helvetica;verticalAlign=bottom;" edge="1" parent="rpo0AfvMABLuY5pFm6gE-92" source="rpo0AfvMABLuY5pFm6gE-1" target="rpo0AfvMABLuY5pFm6gE-65">
          <mxGeometry relative="1" as="geometry" />
        </mxCell>
        <mxCell id="rpo0AfvMABLuY5pFm6gE-66" value="directus" style="outlineConnect=0;dashed=0;verticalLabelPosition=bottom;verticalAlign=top;align=center;html=1;shape=mxgraph.aws3.android;fillColor=#8CC64F;gradientColor=none;" vertex="1" parent="rpo0AfvMABLuY5pFm6gE-92">
          <mxGeometry x="1624.5637583892615" y="338.962962962963" width="92.08053691275167" height="97.77777777777779" as="geometry" />
        </mxCell>
        <mxCell id="rpo0AfvMABLuY5pFm6gE-80" value="/" style="edgeStyle=orthogonalEdgeStyle;rounded=0;orthogonalLoop=1;jettySize=auto;html=1;entryX=0;entryY=0.5;entryDx=0;entryDy=0;entryPerimeter=0;fontFamily=Helvetica;verticalAlign=bottom;exitX=1;exitY=0;exitDx=0;exitDy=0;" edge="1" parent="rpo0AfvMABLuY5pFm6gE-92" source="rpo0AfvMABLuY5pFm6gE-1" target="rpo0AfvMABLuY5pFm6gE-66">
          <mxGeometry relative="1" as="geometry" />
        </mxCell>
        <mxCell id="rpo0AfvMABLuY5pFm6gE-85" value="http://127.0.0.1:8055" style="edgeStyle=orthogonalEdgeStyle;rounded=0;orthogonalLoop=1;jettySize=auto;html=1;entryX=1;entryY=0.5;entryDx=0;entryDy=0;entryPerimeter=0;fontFamily=Helvetica;verticalAlign=bottom;labelPosition=right;verticalLabelPosition=top;align=left;exitX=1;exitY=0.5;exitDx=0;exitDy=0;exitPerimeter=0;" edge="1" parent="rpo0AfvMABLuY5pFm6gE-92" source="rpo0AfvMABLuY5pFm6gE-65" target="rpo0AfvMABLuY5pFm6gE-66">
          <mxGeometry relative="1" as="geometry">
            <Array as="points">
              <mxPoint x="1749.5302013422818" y="564.5037037037038" />
              <mxPoint x="1749.5302013422818" y="388.50370370370376" />
            </Array>
          </mxGeometry>
        </mxCell>
        <mxCell id="rpo0AfvMABLuY5pFm6gE-72" value="web static" style="shape=image;html=1;verticalAlign=top;verticalLabelPosition=bottom;labelBackgroundColor=#ffffff;imageAspect=0;aspect=fixed;image=https://cdn0.iconfinder.com/data/icons/business-and-education-1/512/202_file_static_search_computing-128.png;fillColor=none;" vertex="1" parent="rpo0AfvMABLuY5pFm6gE-92">
          <mxGeometry x="1617.986577181208" y="710.5185185185186" width="102.18823162166382" height="102.18823162166382" as="geometry" />
        </mxCell>
        <mxCell id="rpo0AfvMABLuY5pFm6gE-83" value="/static/" style="edgeStyle=orthogonalEdgeStyle;rounded=0;orthogonalLoop=1;jettySize=auto;html=1;entryX=0;entryY=0.5;entryDx=0;entryDy=0;fontFamily=Helvetica;verticalAlign=bottom;exitX=1;exitY=1;exitDx=0;exitDy=0;" edge="1" parent="rpo0AfvMABLuY5pFm6gE-92" source="rpo0AfvMABLuY5pFm6gE-1" target="rpo0AfvMABLuY5pFm6gE-72">
          <mxGeometry relative="1" as="geometry" />
        </mxCell>
        <mxCell id="rpo0AfvMABLuY5pFm6gE-86" value="portsgresSQL" style="outlineConnect=0;dashed=0;verticalLabelPosition=bottom;verticalAlign=top;align=center;html=1;shape=mxgraph.aws3.rds_db_instance;fillColor=#2E73B8;gradientColor=none;fontFamily=Helvetica;" vertex="1" parent="rpo0AfvMABLuY5pFm6gE-92">
          <mxGeometry x="1596.1240268456377" y="45.62962962962963" width="148.9731543624161" height="104.2962962962963" as="geometry" />
        </mxCell>
        <mxCell id="rpo0AfvMABLuY5pFm6gE-91" style="edgeStyle=orthogonalEdgeStyle;rounded=0;orthogonalLoop=1;jettySize=auto;html=1;entryX=0.5;entryY=0.98;entryDx=0;entryDy=0;entryPerimeter=0;fontFamily=Helvetica;verticalAlign=bottom;" edge="1" parent="rpo0AfvMABLuY5pFm6gE-92" source="rpo0AfvMABLuY5pFm6gE-66" target="rpo0AfvMABLuY5pFm6gE-86">
          <mxGeometry relative="1" as="geometry" />
        </mxCell>
      </root>
    </mxGraphModel>
  </diagram>
</mxfile>
